# MagicaVoxel @ Ephtracy

# group
o 

# material
mtllib arm.mtl
usemtl palette

# normals
vn -1 0 0
vn 1 0 0
vn 0 0 1
vn 0 0 -1
vn 0 -1 0
vn 0 1 0

# texcoords
vt 0.00195313 0.5
vt 0.0292969 0.5
vt 0.705078 0.5
vt 0.779297 0.5

# verts
v 1.8 2.5 -1.6
v 1.8 2.5 -1.7
v 1.8 2.6 -1.6
v 1.8 2.6 -1.7
v 2.1 2.5 -1.5
v 2.1 2.5 -1.6
v 2.1 2.6 -1.6
v 2.1 2.6 -1.7
v 2.1 2.7 -1.5
v 2.1 2.7 -1.7
v 2.3 2.5 -1.5
v 2.3 2.5 -1.7
v 2.3 2.7 -1.5
v 2.3 2.7 -1.7
v 2.1 2.5 -1.5
v 2.1 2.7 -1.5
v 2.2 2.5 -1.5
v 2.2 2.7 -1.5
v 2.3 2.5 -1.5
v 2.3 2.7 -1.5
v 1.8 2.5 -1.6
v 1.8 2.6 -1.6
v 1.9 2.5 -1.6
v 1.9 2.6 -1.6
v 2.1 2.5 -1.6
v 2.1 2.6 -1.6
v 1.8 2.5 -1.7
v 1.8 2.6 -1.7
v 1.9 2.5 -1.7
v 1.9 2.6 -1.7
v 2.1 2.5 -1.7
v 2.1 2.6 -1.7
v 2.1 2.7 -1.7
v 2.2 2.5 -1.7
v 2.2 2.7 -1.7
v 2.3 2.5 -1.7
v 2.3 2.7 -1.7
v 2.1 2.5 -1.5
v 2.2 2.5 -1.5
v 2.3 2.5 -1.5
v 1.8 2.5 -1.6
v 1.9 2.5 -1.6
v 2.1 2.5 -1.6
v 1.8 2.5 -1.7
v 1.9 2.5 -1.7
v 2.1 2.5 -1.7
v 2.2 2.5 -1.7
v 2.3 2.5 -1.7
v 1.8 2.6 -1.6
v 1.9 2.6 -1.6
v 2.1 2.6 -1.6
v 1.8 2.6 -1.7
v 1.9 2.6 -1.7
v 2.1 2.6 -1.7
v 2.1 2.7 -1.5
v 2.2 2.7 -1.5
v 2.3 2.7 -1.5
v 2.1 2.7 -1.7
v 2.2 2.7 -1.7
v 2.3 2.7 -1.7

# faces
f 3/2/1 2/2/1 1/2/1
f 4/2/1 2/2/1 3/2/1
f 7/4/1 6/4/1 5/4/1
f 9/4/1 7/4/1 5/4/1
f 9/4/1 8/4/1 7/4/1
f 10/4/1 8/4/1 9/4/1
f 11/3/2 12/3/2 13/3/2
f 13/3/2 12/3/2 14/3/2
f 17/4/3 16/4/3 15/4/3
f 18/4/3 16/4/3 17/4/3
f 19/3/3 18/3/3 17/3/3
f 20/3/3 18/3/3 19/3/3
f 23/2/3 22/2/3 21/2/3
f 24/2/3 22/2/3 23/2/3
f 25/1/3 24/1/3 23/1/3
f 26/1/3 24/1/3 25/1/3
f 27/2/4 28/2/4 29/2/4
f 29/2/4 28/2/4 30/2/4
f 29/1/4 30/1/4 31/1/4
f 31/1/4 30/1/4 32/1/4
f 31/4/4 32/4/4 34/4/4
f 32/4/4 33/4/4 34/4/4
f 34/4/4 33/4/4 35/4/4
f 34/3/4 35/3/4 36/3/4
f 36/3/4 35/3/4 37/3/4
f 43/4/5 39/4/5 38/4/5
f 44/2/5 42/2/5 41/2/5
f 45/1/5 43/1/5 42/1/5
f 45/2/5 42/2/5 44/2/5
f 46/4/5 39/4/5 43/4/5
f 46/1/5 43/1/5 45/1/5
f 47/3/5 40/3/5 39/3/5
f 47/4/5 39/4/5 46/4/5
f 48/3/5 40/3/5 47/3/5
f 49/2/6 50/2/6 52/2/6
f 50/1/6 51/1/6 53/1/6
f 52/2/6 50/2/6 53/2/6
f 53/1/6 51/1/6 54/1/6
f 55/4/6 56/4/6 58/4/6
f 56/3/6 57/3/6 59/3/6
f 58/4/6 56/4/6 59/4/6
f 59/3/6 57/3/6 60/3/6
